<?xml version="1.0" standalone="no"?>
<!DOCTYPE svg PUBLIC "-//W3C//DTD SVG 20010904//EN"
 "http://www.w3.org/TR/2001/REC-SVG-20010904/DTD/svg10.dtd">
<svg version="1.0" xmlns="http://www.w3.org/2000/svg"
 width="128.000000pt" height="66.000000pt" viewBox="0 0 128.000000 66.000000"
 preserveAspectRatio="xMidYMid meet">

<g transform="translate(0.000000,66.000000) scale(0.100000,-0.100000)"
fill="#000000" stroke="none">
<path d="M0 330 l0 -330 640 0 640 0 0 330 0 330 -640 0 -640 0 0 -330z m730
241 c0 -5 -9 -11 -20 -14 -18 -5 -20 -14 -20 -82 0 -68 2 -77 20 -82 32 -9 23
-25 -12 -21 l-33 3 -3 89 c-2 49 -1 95 2 103 6 14 66 18 66 4z m72 -83 c3 -85
5 -93 23 -93 18 0 20 8 23 93 2 73 6 92 17 92 12 0 15 -18 15 -89 0 -116 -2
-121 -55 -121 -51 0 -55 7 -55 128 0 65 3 82 15 82 11 0 15 -19 17 -92z m188
83 c0 -5 -9 -11 -20 -14 -18 -5 -20 -14 -20 -82 0 -68 2 -77 20 -82 32 -9 23
-25 -12 -21 l-33 3 -3 103 -3 102 36 0 c19 0 35 -4 35 -9z m120 0 c0 -5 -10
-11 -22 -13 -19 -2 -23 -9 -23 -38 0 -28 4 -35 25 -40 19 -4 25 -13 27 -35 4
-60 -4 -75 -42 -75 -39 0 -48 17 -12 22 18 2 22 9 22 38 0 31 -3 35 -27 38
-26 3 -28 6 -28 51 0 26 3 51 7 54 10 11 73 8 73 -2z m70 -96 c0 -63 -4 -105
-10 -105 -6 0 -10 42 -10 105 0 63 4 105 10 105 6 0 10 -42 10 -105z m-837 68
c-7 -2 -19 -2 -25 0 -7 3 -2 5 12 5 14 0 19 -2 13 -5z m-173 -16 c0 -2 -10
-12 -22 -23 l-23 -19 19 23 c18 21 26 27 26 19z m152 -61 c13 -9 17 -16 9 -16
-22 0 -51 31 -50 54 0 21 0 21 9 0 5 -12 19 -29 32 -38z m194 -16 c13 0 24 -5
24 -11 0 -23 -43 -80 -70 -94 -60 -31 -98 -6 -45 29 14 9 25 24 25 34 -1 11
-19 -3 -57 -42 l-55 -59 76 -75 c42 -41 74 -77 72 -79 -2 -3 -39 28 -81 68
l-76 73 -65 -69 c-77 -82 -98 -81 -25 2 28 31 51 65 51 75 0 10 -16 34 -35 53
-35 36 -58 48 -34 18 12 -15 12 -16 -4 -10 -11 4 -16 3 -12 -3 3 -6 14 -10 23
-11 10 0 12 -3 5 -5 -19 -8 -55 16 -49 32 5 14 -30 19 -91 14 -13 -1 -23 3
-23 8 0 13 67 45 83 39 7 -2 17 3 22 10 13 18 42 7 50 -18 4 -12 16 -19 31
-19 18 0 24 -5 24 -23 0 -13 11 -33 24 -46 22 -21 23 -21 37 -3 8 11 39 50 69
87 53 66 54 67 68 46 8 -11 25 -21 38 -21z m-407 18 c-2 -2 -17 -14 -34 -28
l-30 -25 24 28 c14 15 29 27 34 27 6 0 8 -1 6 -2z m-72 -80 c-3 -8 -6 -5 -6 6
-1 11 2 17 5 13 3 -3 4 -12 1 -19z m716 -98 c4 -16 0 -20 -19 -20 -23 0 -24
-2 -24 -75 0 -73 1 -75 24 -75 19 0 23 -4 19 -20 -4 -16 -14 -20 -49 -20 l-44
0 0 115 0 115 44 0 c35 0 45 -4 49 -20z m142 -95 l0 -110 -54 -3 c-37 -2 -57
1 -62 10 -10 15 -12 179 -3 203 5 13 18 15 63 13 l56 -3 0 -110z m153 45 c2
-35 -2 -74 -8 -85 -8 -15 -8 -29 -1 -48 10 -25 9 -27 -14 -27 -19 0 -29 8 -39
32 l-14 33 -1 -32 c-1 -28 -5 -33 -26 -33 l-25 0 0 115 0 116 63 -3 62 -3 3
-65z m140 -12 l-3 -83 -32 -3 c-29 -3 -33 -7 -33 -33 0 -24 -4 -29 -25 -29
l-25 0 0 115 0 115 60 0 61 0 -3 -82z m-1080 -3 c-3 -3 -9 2 -12 12 -6 14 -5
15 5 6 7 -7 10 -15 7 -18z m227 5 c3 -5 1 -10 -4 -10 -6 0 -11 5 -11 10 0 6 2
10 4 10 3 0 8 -4 11 -10z m-41 -36 c3 -8 2 -12 -4 -9 -6 3 -10 10 -10 16 0 14
7 11 14 -7z m36 -4 c0 -5 -2 -10 -4 -10 -3 0 -8 5 -11 10 -3 6 -1 10 4 10 6 0
11 -4 11 -10z m65 0 c8 -13 -5 -13 -25 0 -13 8 -13 10 2 10 9 0 20 -4 23 -10z
m-71 -29 c3 -5 0 -11 -7 -14 -8 -3 -14 1 -14 9 0 16 13 19 21 5z m203 -23 c-3
-8 -6 -5 -6 6 -1 11 2 17 5 13 3 -3 4 -12 1 -19z m-30 -24 c-3 -3 -12 -4 -19
-1 -8 3 -5 6 6 6 11 1 17 -2 13 -5z m-109 -11 c-10 -2 -26 -2 -35 0 -10 3 -2
5 17 5 19 0 27 -2 18 -5z m-91 -9 c-3 -3 -12 -4 -19 -1 -8 3 -5 6 6 6 11 1 17
-2 13 -5z"/>
<path d="M820 195 c0 -60 3 -75 15 -75 12 0 15 15 15 75 0 60 -3 75 -15 75
-12 0 -15 -15 -15 -75z"/>
<path d="M970 230 c0 -29 4 -40 15 -40 11 0 15 11 15 40 0 29 -4 40 -15 40
-11 0 -15 -11 -15 -40z"/>
<path d="M1120 226 c0 -35 4 -46 16 -46 12 0 14 9 12 42 -4 59 -28 63 -28 4z"/>
</g>
</svg>
